<mxfile host="app.diagrams.net" modified="2023-05-07T12:28:03.986Z" agent="Mozilla/5.0 (Macintosh; Intel Mac OS X 10_15_7) AppleWebKit/605.1.15 (KHTML, like Gecko) Version/16.4 Safari/605.1.15" etag="q0jMlbxubcPOYfqsqPNV" version="21.2.3" type="device">
  <diagram name="Page-1" id="2YBvvXClWsGukQMizWep">
    <mxGraphModel dx="1642" dy="921" grid="1" gridSize="10" guides="1" tooltips="1" connect="1" arrows="1" fold="1" page="1" pageScale="1" pageWidth="850" pageHeight="1100" math="0" shadow="0">
      <root>
        <mxCell id="0" />
        <mxCell id="1" parent="0" />
        <mxCell id="uHuj9NdNtawoRyD4EZtH-32" value="" style="rounded=0;whiteSpace=wrap;html=1;fillColor=none;" parent="1" vertex="1">
          <mxGeometry x="60" y="390" width="710" height="240" as="geometry" />
        </mxCell>
        <mxCell id="uHuj9NdNtawoRyD4EZtH-1" value=":User_Manager" style="shape=umlLifeline;perimeter=lifelinePerimeter;whiteSpace=wrap;html=1;container=1;collapsible=0;recursiveResize=0;outlineConnect=0;rounded=1;shadow=0;comic=0;labelBackgroundColor=none;strokeWidth=1;fontFamily=Verdana;fontSize=12;align=center;" parent="1" vertex="1">
          <mxGeometry x="470" y="110" width="110" height="530" as="geometry" />
        </mxCell>
        <mxCell id="uHuj9NdNtawoRyD4EZtH-17" value="" style="rounded=0;whiteSpace=wrap;html=1;" parent="uHuj9NdNtawoRyD4EZtH-1" vertex="1">
          <mxGeometry x="50" y="120" width="10" height="220" as="geometry" />
        </mxCell>
        <mxCell id="uHuj9NdNtawoRyD4EZtH-55" value="" style="rounded=0;whiteSpace=wrap;html=1;" parent="uHuj9NdNtawoRyD4EZtH-1" vertex="1">
          <mxGeometry x="50" y="401" width="10" height="60" as="geometry" />
        </mxCell>
        <mxCell id="uHuj9NdNtawoRyD4EZtH-75" value="" style="html=1;verticalAlign=bottom;endArrow=block;edgeStyle=elbowEdgeStyle;elbow=vertical;curved=0;rounded=0;" parent="uHuj9NdNtawoRyD4EZtH-1" edge="1">
          <mxGeometry relative="1" as="geometry">
            <mxPoint x="-115" y="120" as="sourcePoint" />
            <Array as="points">
              <mxPoint x="-35" y="120" />
            </Array>
            <mxPoint x="50" y="120" as="targetPoint" />
          </mxGeometry>
        </mxCell>
        <mxCell id="uHuj9NdNtawoRyD4EZtH-2" value=":Database" style="shape=umlLifeline;perimeter=lifelinePerimeter;whiteSpace=wrap;html=1;container=1;collapsible=0;recursiveResize=0;outlineConnect=0;rounded=1;shadow=0;comic=0;labelBackgroundColor=none;strokeWidth=1;fontFamily=Verdana;fontSize=12;align=center;" parent="1" vertex="1">
          <mxGeometry x="650" y="110" width="100" height="530" as="geometry" />
        </mxCell>
        <mxCell id="uHuj9NdNtawoRyD4EZtH-19" value="" style="rounded=0;whiteSpace=wrap;html=1;" parent="uHuj9NdNtawoRyD4EZtH-2" vertex="1">
          <mxGeometry x="45" y="150" width="10" height="40" as="geometry" />
        </mxCell>
        <mxCell id="uHuj9NdNtawoRyD4EZtH-30" value="" style="html=1;verticalAlign=bottom;endArrow=open;dashed=1;endSize=8;edgeStyle=elbowEdgeStyle;elbow=vertical;curved=0;rounded=0;" parent="uHuj9NdNtawoRyD4EZtH-2" edge="1">
          <mxGeometry relative="1" as="geometry">
            <mxPoint x="-120" y="190" as="targetPoint" />
            <Array as="points">
              <mxPoint x="-30" y="190" />
            </Array>
            <mxPoint x="45" y="190" as="sourcePoint" />
          </mxGeometry>
        </mxCell>
        <mxCell id="uHuj9NdNtawoRyD4EZtH-3" value="&amp;lt;Actor&amp;gt;&lt;br&gt;User" style="shape=umlLifeline;perimeter=lifelinePerimeter;whiteSpace=wrap;html=1;container=1;collapsible=0;recursiveResize=0;outlineConnect=0;rounded=1;shadow=0;comic=0;labelBackgroundColor=none;strokeWidth=1;fontFamily=Verdana;fontSize=12;align=center;" parent="1" vertex="1">
          <mxGeometry x="130" y="110" width="100" height="530" as="geometry" />
        </mxCell>
        <mxCell id="KVfgHK4Hvv0jmaozX4Rl-2" value="" style="html=1;verticalAlign=bottom;endArrow=open;dashed=1;endSize=8;edgeStyle=elbowEdgeStyle;elbow=vertical;curved=0;rounded=0;" edge="1" parent="uHuj9NdNtawoRyD4EZtH-3">
          <mxGeometry relative="1" as="geometry">
            <mxPoint x="50" y="489.43000000000006" as="targetPoint" />
            <Array as="points">
              <mxPoint x="140" y="489.43000000000006" />
            </Array>
            <mxPoint x="215" y="489.43000000000006" as="sourcePoint" />
          </mxGeometry>
        </mxCell>
        <mxCell id="uHuj9NdNtawoRyD4EZtH-4" value=":UI" style="shape=umlLifeline;perimeter=lifelinePerimeter;whiteSpace=wrap;html=1;container=1;collapsible=0;recursiveResize=0;outlineConnect=0;rounded=1;shadow=0;comic=0;labelBackgroundColor=none;strokeWidth=1;fontFamily=Verdana;fontSize=12;align=center;" parent="1" vertex="1">
          <mxGeometry x="300" y="110" width="100" height="530" as="geometry" />
        </mxCell>
        <mxCell id="uHuj9NdNtawoRyD4EZtH-5" value="" style="rounded=0;whiteSpace=wrap;html=1;" parent="uHuj9NdNtawoRyD4EZtH-4" vertex="1">
          <mxGeometry x="45" y="90" width="10" height="290" as="geometry" />
        </mxCell>
        <mxCell id="uHuj9NdNtawoRyD4EZtH-54" value="" style="rounded=0;whiteSpace=wrap;html=1;" parent="uHuj9NdNtawoRyD4EZtH-4" vertex="1">
          <mxGeometry x="45" y="401" width="10" height="89" as="geometry" />
        </mxCell>
        <mxCell id="uHuj9NdNtawoRyD4EZtH-74" value="" style="html=1;verticalAlign=bottom;endArrow=block;edgeStyle=elbowEdgeStyle;elbow=vertical;curved=0;rounded=0;" parent="uHuj9NdNtawoRyD4EZtH-4" edge="1">
          <mxGeometry relative="1" as="geometry">
            <mxPoint x="-120" y="90" as="sourcePoint" />
            <Array as="points">
              <mxPoint x="-40" y="90" />
            </Array>
            <mxPoint x="45" y="90" as="targetPoint" />
          </mxGeometry>
        </mxCell>
        <mxCell id="uHuj9NdNtawoRyD4EZtH-89" value="return&lt;br&gt;SignUp(str id, str pw) == ture" style="endArrow=open;endFill=1;endSize=8;html=1;rounded=0;verticalAlign=bottom;dashed=1;" parent="uHuj9NdNtawoRyD4EZtH-4" edge="1">
          <mxGeometry width="160" relative="1" as="geometry">
            <mxPoint x="220" y="340" as="sourcePoint" />
            <mxPoint x="55" y="340" as="targetPoint" />
          </mxGeometry>
        </mxCell>
        <mxCell id="KVfgHK4Hvv0jmaozX4Rl-1" value="return&lt;br&gt;SignUp(str id, str pw) == false" style="html=1;verticalAlign=bottom;endArrow=open;dashed=1;endSize=8;edgeStyle=elbowEdgeStyle;elbow=vertical;curved=0;rounded=0;" edge="1" parent="uHuj9NdNtawoRyD4EZtH-4">
          <mxGeometry x="-0.0026" relative="1" as="geometry">
            <mxPoint x="55" y="460" as="targetPoint" />
            <Array as="points">
              <mxPoint x="145" y="460" />
            </Array>
            <mxPoint x="220" y="460" as="sourcePoint" />
            <mxPoint as="offset" />
          </mxGeometry>
        </mxCell>
        <mxCell id="uHuj9NdNtawoRyD4EZtH-10" value="input_sign_data&lt;br&gt;(str ID, str PW)" style="text;html=1;strokeColor=none;fillColor=none;align=center;verticalAlign=middle;whiteSpace=wrap;rounded=0;" parent="1" vertex="1">
          <mxGeometry x="185" y="174" width="150" height="20" as="geometry" />
        </mxCell>
        <mxCell id="uHuj9NdNtawoRyD4EZtH-13" value="SignUp(str id, str pw)" style="text;html=1;strokeColor=none;fillColor=none;align=center;verticalAlign=middle;whiteSpace=wrap;rounded=0;" parent="1" vertex="1">
          <mxGeometry x="367" y="210" width="140" height="20" as="geometry" />
        </mxCell>
        <mxCell id="uHuj9NdNtawoRyD4EZtH-31" value="return_user_data()" style="text;html=1;strokeColor=none;fillColor=none;align=center;verticalAlign=middle;whiteSpace=wrap;rounded=0;" parent="1" vertex="1">
          <mxGeometry x="550" y="279" width="135" height="20" as="geometry" />
        </mxCell>
        <mxCell id="uHuj9NdNtawoRyD4EZtH-33" value="" style="endArrow=none;html=1;rounded=0;exitX=0;exitY=0.5;exitDx=0;exitDy=0;entryX=1;entryY=0.5;entryDx=0;entryDy=0;" parent="1" edge="1">
          <mxGeometry width="50" height="50" relative="1" as="geometry">
            <mxPoint x="60" y="503" as="sourcePoint" />
            <mxPoint x="770" y="503" as="targetPoint" />
          </mxGeometry>
        </mxCell>
        <mxCell id="uHuj9NdNtawoRyD4EZtH-37" value="입력정보 일치" style="rounded=0;whiteSpace=wrap;html=1;" parent="1" vertex="1">
          <mxGeometry x="60" y="390" width="80" height="20" as="geometry" />
        </mxCell>
        <mxCell id="uHuj9NdNtawoRyD4EZtH-38" value="입력정보 불일치" style="rounded=0;whiteSpace=wrap;html=1;" parent="1" vertex="1">
          <mxGeometry x="60" y="503" width="90" height="20" as="geometry" />
        </mxCell>
        <mxCell id="uHuj9NdNtawoRyD4EZtH-53" value="signin_complete" style="text;html=1;strokeColor=none;fillColor=none;align=center;verticalAlign=middle;whiteSpace=wrap;rounded=0;" parent="1" vertex="1">
          <mxGeometry x="196.5" y="470" width="140" height="20" as="geometry" />
        </mxCell>
        <mxCell id="uHuj9NdNtawoRyD4EZtH-59" value="request_re_enter" style="text;html=1;strokeColor=none;fillColor=none;align=center;verticalAlign=middle;whiteSpace=wrap;rounded=0;" parent="1" vertex="1">
          <mxGeometry x="194.5" y="580" width="140" height="20" as="geometry" />
        </mxCell>
        <mxCell id="uHuj9NdNtawoRyD4EZtH-63" value="get_user_data()" style="text;html=1;strokeColor=none;fillColor=none;align=center;verticalAlign=middle;whiteSpace=wrap;rounded=0;" parent="1" vertex="1">
          <mxGeometry x="570" y="240" width="80" height="20" as="geometry" />
        </mxCell>
        <mxCell id="uHuj9NdNtawoRyD4EZtH-64" value="" style="rounded=0;whiteSpace=wrap;html=1;" parent="1" vertex="1">
          <mxGeometry x="525" y="330" width="10" height="40" as="geometry" />
        </mxCell>
        <mxCell id="uHuj9NdNtawoRyD4EZtH-68" value="check_user_data&lt;br&gt;(str ID, str PW)" style="text;html=1;strokeColor=none;fillColor=none;align=center;verticalAlign=middle;whiteSpace=wrap;rounded=0;" parent="1" vertex="1">
          <mxGeometry x="557" y="327" width="100" height="30" as="geometry" />
        </mxCell>
        <mxCell id="uHuj9NdNtawoRyD4EZtH-82" value="" style="html=1;verticalAlign=bottom;endArrow=block;edgeStyle=elbowEdgeStyle;rounded=0;" parent="1" edge="1">
          <mxGeometry relative="1" as="geometry">
            <mxPoint x="535" y="330" as="sourcePoint" />
            <Array as="points">
              <mxPoint x="560" y="345" />
            </Array>
            <mxPoint x="535" y="355" as="targetPoint" />
          </mxGeometry>
        </mxCell>
        <mxCell id="uHuj9NdNtawoRyD4EZtH-86" value="" style="html=1;verticalAlign=bottom;endArrow=open;dashed=1;endSize=8;edgeStyle=elbowEdgeStyle;elbow=vertical;curved=0;rounded=0;" parent="1" edge="1">
          <mxGeometry relative="1" as="geometry">
            <mxPoint x="181" y="490" as="targetPoint" />
            <Array as="points">
              <mxPoint x="271" y="490" />
            </Array>
            <mxPoint x="346" y="490" as="sourcePoint" />
          </mxGeometry>
        </mxCell>
        <mxCell id="uHuj9NdNtawoRyD4EZtH-88" value="" style="endArrow=block;endFill=1;html=1;rounded=0;entryX=0;entryY=0;entryDx=0;entryDy=0;" parent="1" target="uHuj9NdNtawoRyD4EZtH-19" edge="1">
          <mxGeometry width="160" relative="1" as="geometry">
            <mxPoint x="530" y="260" as="sourcePoint" />
            <mxPoint x="690" y="260" as="targetPoint" />
          </mxGeometry>
        </mxCell>
      </root>
    </mxGraphModel>
  </diagram>
</mxfile>
